<svg width="512" height="512" viewBox="0 0 512 512" fill="none" xmlns="http://www.w3.org/2000/svg">
  <!-- Background circle -->
  <circle cx="256" cy="256" r="240" fill="#2d5a2d"/>
  
  <!-- Crocodile head -->
  <ellipse cx="256" cy="280" rx="160" ry="120" fill="#5ca85c"/>
  <ellipse cx="256" cy="280" rx="140" ry="100" fill="#6cb86c"/>
  
  <!-- Eyes -->
  <circle cx="215" cy="250" r="25" fill="#fff"/>
  <circle cx="297" cy="250" r="25" fill="#fff"/>
  <circle cx="218" cy="254" r="12" fill="#000"/>
  <circle cx="294" cy="254" r="12" fill="#000"/>
  
  <!-- Eye highlights -->
  <circle cx="222" cy="250" r="5" fill="#fff"/>
  <circle cx="290" cy="250" r="5" fill="#fff"/>
  
  <!-- Nostrils -->
  <ellipse cx="236" cy="310" rx="6" ry="10" fill="#3a5a3a"/>
  <ellipse cx="276" cy="310" rx="6" ry="10" fill="#3a5a3a"/>
  
  <!-- Mouth -->
  <path d="M 140 330 Q 256 345 372 330" stroke="#2a4a2a" stroke-width="3" fill="none"/>
  
  <!-- Teeth -->
  <polygon points="170,330 173,345 176,330" fill="#fff"/>
  <polygon points="190,330 193,348 196,330" fill="#fff"/>
  <polygon points="210,330 213,350 216,330" fill="#fff"/>
  <polygon points="230,330 233,351 236,330" fill="#fff"/>
  <polygon points="250,330 253,352 256,330" fill="#fff"/>
  <polygon points="270,330 273,352 276,330" fill="#fff"/>
  <polygon points="290,330 293,351 296,330" fill="#fff"/>
  <polygon points="310,330 313,350 316,330" fill="#fff"/>
  <polygon points="330,330 333,348 336,330" fill="#fff"/>
  <polygon points="350,330 353,345 356,330" fill="#fff"/>
  
  <!-- Decorative scales -->
  <circle cx="190" cy="275" r="6" fill="#4a8a4a" opacity="0.4"/>
  <circle cx="220" cy="270" r="5" fill="#4a8a4a" opacity="0.4"/>
  <circle cx="290" cy="270" r="5" fill="#4a8a4a" opacity="0.4"/>
  <circle cx="320" cy="275" r="6" fill="#4a8a4a" opacity="0.4"/>
</svg>
